<svg width="240" height="240" viewBox="0 0 240 240" xmlns="http://www.w3.org/2000/svg">
  <!-- Background -->
  <rect width="240" height="240" fill="white"/>
  
  <!-- Position markers (top-left) -->
  <rect x="10" y="10" width="35" height="35" fill="black"/>
  <rect x="15" y="15" width="25" height="25" fill="white"/>
  <rect x="18" y="18" width="19" height="19" fill="black"/>
  
  <!-- Position markers (top-right) -->
  <rect x="195" y="10" width="35" height="35" fill="black"/>
  <rect x="200" y="15" width="25" height="25" fill="white"/>
  <rect x="203" y="18" width="19" height="19" fill="black"/>
  
  <!-- Position markers (bottom-left) -->
  <rect x="10" y="195" width="35" height="35" fill="black"/>
  <rect x="15" y="200" width="25" height="25" fill="white"/>
  <rect x="18" y="203" width="19" height="19" fill="black"/>
  
  <!-- Timing pattern (horizontal) -->
  <line x1="50" y1="25" x2="175" y2="25" stroke="black" stroke-width="3" stroke-dasharray="6,6"/>
  
  <!-- Timing pattern (vertical) -->
  <line x1="25" y1="50" x2="25" y2="175" stroke="black" stroke-width="3" stroke-dasharray="6,6"/>
  
  <!-- Data area (pseudo QR code pattern) -->
  <g fill="black">
    <!-- Row 1 -->
    <rect x="60" y="60" width="6" height="6"/>
    <rect x="72" y="60" width="6" height="6"/>
    <rect x="84" y="60" width="6" height="6"/>
    <rect x="96" y="60" width="6" height="6"/>
    <rect x="114" y="60" width="6" height="6"/>
    <rect x="126" y="60" width="6" height="6"/>
    <rect x="138" y="60" width="6" height="6"/>
    <rect x="150" y="60" width="6" height="6"/>
    <rect x="162" y="60" width="6" height="6"/>
    
    <!-- Row 2 -->
    <rect x="54" y="72" width="6" height="6"/>
    <rect x="66" y="72" width="6" height="6"/>
    <rect x="90" y="72" width="6" height="6"/>
    <rect x="108" y="72" width="6" height="6"/>
    <rect x="132" y="72" width="6" height="6"/>
    <rect x="156" y="72" width="6" height="6"/>
    <rect x="168" y="72" width="6" height="6"/>
    
    <!-- Row 3 -->
    <rect x="60" y="84" width="6" height="6"/>
    <rect x="78" y="84" width="6" height="6"/>
    <rect x="102" y="84" width="6" height="6"/>
    <rect x="120" y="84" width="6" height="6"/>
    <rect x="144" y="84" width="6" height="6"/>
    <rect x="162" y="84" width="6" height="6"/>
    
    <!-- Row 4 -->
    <rect x="48" y="96" width="6" height="6"/>
    <rect x="72" y="96" width="6" height="6"/>
    <rect x="96" y="96" width="6" height="6"/>
    <rect x="114" y="96" width="6" height="6"/>
    <rect x="138" y="96" width="6" height="6"/>
    <rect x="156" y="96" width="6" height="6"/>
    <rect x="174" y="96" width="6" height="6"/>
    
    <!-- Row 5 -->
    <rect x="60" y="108" width="6" height="6"/>
    <rect x="84" y="108" width="6" height="6"/>
    <rect x="108" y="108" width="6" height="6"/>
    <rect x="132" y="108" width="6" height="6"/>
    <rect x="150" y="108" width="6" height="6"/>
    <rect x="168" y="108" width="6" height="6"/>
    
    <!-- Row 6 -->
    <rect x="54" y="120" width="6" height="6"/>
    <rect x="72" y="120" width="6" height="6"/>
    <rect x="96" y="120" width="6" height="6"/>
    <rect x="120" y="120" width="6" height="6"/>
    <rect x="138" y="120" width="6" height="6"/>
    <rect x="162" y="120" width="6" height="6"/>
    
    <!-- Row 7 (format information area) -->
    <rect x="60" y="132" width="6" height="6"/>
    <rect x="78" y="132" width="6" height="6"/>
    <rect x="108" y="132" width="6" height="6"/>
    <rect x="132" y="132" width="6" height="6"/>
    <rect x="150" y="132" width="6" height="6"/>
    <rect x="168" y="132" width="6" height="6"/>
  </g>
  
  <!-- Center logo area (white square) -->
  <rect x="95" y="95" width="50" height="50" fill="white" stroke="black" stroke-width="2"/>
  
  <!-- Simple coffee cup icon in center -->
  <g transform="translate(120, 120)">
    <!-- Cup body -->
    <path d="M -8 -5 L -8 8 Q -8 12 -4 12 L 8 12 Q 12 12 12 8 L 12 -5" stroke="black" stroke-width="1.5" fill="none"/>
    <!-- Cup handle -->
    <path d="M 14 0 Q 20 0 20 6" stroke="black" stroke-width="1.5" fill="none"/>
    <!-- Coffee steam -->
    <path d="M -4 -12 Q -2 -14 0 -12" stroke="black" stroke-width="1" fill="none"/>
    <path d="M 4 -12 Q 6 -14 8 -12" stroke="black" stroke-width="1" fill="none"/>
  </g>
</svg>